# Blender v2.76 (sub 0) OBJ File: 'car.blend'
# www.blender.org
mtllib car.mtl
o Cube
v 1.900452 -0.267296 -1.900452
v 1.900452 -0.267296 1.900452
v -1.900452 -0.267296 1.900452
v -1.900452 -0.267296 -1.900453
v 1.900453 3.533608 -1.900451
v 1.900451 3.533608 1.900453
v -1.900453 3.533608 1.900452
v -1.900452 3.533608 -1.900452
v 1.900452 -0.267296 -0.633484
v 1.900452 -0.267296 0.633484
v 0.633484 -0.267296 -1.900452
v -0.633484 -0.267296 -1.900453
v 1.900452 0.999672 -1.900452
v 1.991635 2.266640 -1.773755
v 0.633484 -0.267296 1.900452
v -0.633484 -0.267296 1.900452
v 1.900452 0.999672 1.900453
v 1.991634 2.266640 1.773757
v -1.900452 -0.267296 0.633484
v -1.900452 -0.267296 -0.633485
v -1.900453 0.999672 1.900452
v -1.900453 2.266640 1.900452
v -1.900452 0.999672 -1.900453
v -1.900452 2.266640 -1.900452
v 1.900452 3.533608 -0.633483
v 1.900452 3.533608 0.633485
v 0.633485 3.533608 -1.900452
v -0.633484 3.533608 -1.900452
v 0.633483 3.533608 1.900453
v -0.633485 3.533608 1.900452
v -1.900453 3.533608 0.633484
v -1.900452 3.533608 -0.633484
v 0.633484 2.266640 -1.900452
v -0.633484 2.266640 -1.900452
v 0.633484 0.999672 -1.900452
v -0.633484 0.999672 -1.900452
v -1.900452 0.999672 0.633484
v -1.900452 0.999672 -0.633484
v -1.900452 2.266640 0.633484
v -1.900452 2.266640 -0.633484
v 0.633484 0.999672 1.900452
v -0.633484 0.999672 1.900452
v 0.633483 2.266640 1.900453
v -0.633485 2.266640 1.900452
v 2.172801 2.425011 -0.633483
v 2.172801 2.425011 0.633485
v 0.633484 3.533608 -0.633483
v 0.633483 3.533608 0.633485
v -0.633484 3.533608 -0.633484
v -0.633484 3.533608 0.633484
v 0.633484 -0.267296 -0.633484
v -0.633484 -0.267296 -0.633484
v 0.633484 -0.267296 0.633484
v -0.633484 -0.267296 0.633484
v 4.079245 -0.267296 0.633485
v 4.079245 -0.267296 1.900453
v 4.079245 -0.267296 -1.900452
v 4.079245 -0.267296 -0.633484
v 3.806896 0.999672 -1.742080
v 3.716113 2.055479 -1.689290
v 3.806895 0.999672 1.742082
v 3.716112 2.055479 1.689292
v 4.079245 0.999672 0.633485
v 4.079245 0.999672 -0.633483
v 3.806895 2.108269 0.633485
v 3.806896 2.108269 -0.633483
v -3.166469 -0.267297 -0.633485
v -3.166469 -0.267297 -1.900453
v -3.166470 -0.267297 1.900452
v -3.166469 -0.267297 0.633483
v -3.166470 0.999671 1.900451
v -3.166469 0.999671 -1.900453
v -3.166469 0.999671 -0.633485
v -3.166470 0.999671 0.633483
v 1.900452 -0.267296 -2.609697
v 0.633484 -0.267296 -2.609698
v -0.633483 -0.267296 -2.609698
v 1.900453 0.999672 -2.609697
v 0.633485 0.999672 -2.609697
v -0.633484 0.999672 -2.609698
v 1.900452 -0.267297 3.082958
v 0.633484 -0.267297 3.082958
v -0.633484 -0.267297 3.082958
v 1.900452 0.999672 3.082958
v 0.633483 0.999672 3.082958
v -0.633485 0.999672 3.082958
v 1.900452 -0.787758 1.900452
v 0.633484 -0.787758 1.900452
v -0.633484 -0.787758 1.900452
v 1.900452 -0.787758 3.082958
v 0.633484 -0.787758 3.082958
v -0.633484 -0.787758 3.082958
v 1.900452 -0.956424 -1.900452
v 0.633484 -0.956424 -1.900453
v -0.633484 -0.956424 -1.900453
v 1.900452 -0.956424 -2.609698
v 0.633484 -0.956424 -2.609698
v -0.633483 -0.956424 -2.609698
v -4.451118 0.999671 1.900451
v -4.451118 2.266639 1.900451
v -4.451118 0.999671 -1.900453
v -4.451118 2.266639 -1.900453
v -4.451118 0.999671 -0.633485
v -4.451118 0.999671 0.633483
v -4.451118 2.266639 -0.633485
v -4.451118 2.266639 0.633483
v -5.717134 -0.267297 -0.633486
v -5.717134 -0.267297 -1.900454
v -5.717135 -0.267297 1.900451
v -5.717135 -0.267297 0.633483
v -5.717135 0.999671 1.900451
v -5.717134 0.999671 -1.900454
v -5.717135 0.999671 -0.633485
v -5.717135 0.999671 0.633483
v -5.733234 0.999671 1.900451
v -5.733234 2.266639 1.900451
v -5.733233 0.999671 -1.900454
v -5.733233 2.266639 -1.900453
v -5.733233 0.999671 -0.633485
v -5.733234 0.999671 0.633483
v -5.733233 2.266639 -0.633485
v -5.733234 2.266639 0.633483
v -3.166470 -0.267297 2.656564
v -3.166470 0.999672 2.656564
v -5.717135 -0.267297 2.656563
v -5.717135 0.999671 2.656563
v -3.166470 -0.832902 1.900452
v -5.717135 -0.832902 1.900451
v -3.166470 -0.832902 2.656564
v -5.717135 -0.832902 2.656563
v -3.166468 -0.267297 -2.774915
v -3.166468 0.999672 -2.774914
v -5.717134 0.999671 -2.774915
v -5.717134 -0.267297 -2.774915
v -5.717134 -0.847426 -1.900454
v -3.166469 -0.847426 -1.900453
v -5.717134 -0.847426 -2.774915
v -3.166468 -0.847426 -2.774915
vn 0.000000 -1.000000 -0.000000
vn 0.000000 1.000000 0.000000
vn 0.971100 0.238600 0.000000
vn -0.000000 0.000000 1.000000
vn -1.000000 -0.000000 -0.000000
vn 0.000000 0.000000 -1.000000
vn 0.092500 -0.092500 -0.991400
vn 1.000000 -0.000000 0.000000
vn 0.092500 0.092500 0.991400
vn -0.000000 0.124000 0.992300
vn 0.082800 0.000000 -0.996600
vn 0.190300 0.981700 -0.000000
vn 0.189900 0.979600 -0.065300
vn 0.971100 -0.000000 0.238600
vn 0.966700 0.237500 0.095000
vn 0.971100 -0.000000 -0.238600
vn 0.966700 0.237500 -0.095000
vn 0.060300 0.095000 -0.993600
vn 0.127600 0.979400 0.156300
vn 0.082700 0.056900 0.995000
vn 0.984900 0.054500 0.164100
vn 0.092500 0.092500 -0.991400
vn 0.092500 -0.092500 0.991400
vn 0.082800 -0.000000 0.996600
vn 0.000000 0.124000 -0.992300
vn 0.127600 0.979400 -0.156300
vn 0.984900 0.054500 -0.164100
vn 0.977700 0.210200 0.000000
vn 0.966700 0.095000 0.237500
vn 0.966700 0.095000 -0.237500
vn 0.082700 0.056900 -0.995000
vn 0.189900 0.979600 0.065300
vn 0.060300 0.095000 0.993600
usemtl Material
s off
f 16//1 3//1 19//1
f 31//2 7//2 30//2
f 46//3 26//3 6//3
f 30//4 7//4 22//4
f 40//5 32//5 8//5
f 12//6 4//6 23//6
f 34//6 24//6 8//6
f 34//6 36//6 23//6
f 5//7 14//7 33//7
f 33//6 34//6 28//6
f 13//6 35//6 33//6
f 33//6 35//6 36//6
f 1//8 75//8 78//8
f 13//2 78//2 79//2
f 19//1 70//1 67//1
f 68//1 67//1 107//1
f 4//1 20//1 67//1
f 37//2 74//2 71//2
f 73//2 113//2 114//2
f 40//2 105//2 106//2
f 7//5 31//5 39//5
f 39//5 31//5 32//5
f 42//4 21//4 3//4
f 44//4 22//4 21//4
f 41//2 42//2 86//2
f 17//8 84//8 81//8
f 17//9 18//9 43//9
f 43//4 44//4 42//4
f 6//4 29//4 43//4
f 29//4 30//4 44//4
f 2//10 56//10 61//10
f 10//1 9//1 58//1
f 1//11 13//11 59//11
f 46//12 65//12 66//12
f 9//1 1//1 57//1
f 45//13 66//13 60//13
f 5//3 25//3 45//3
f 25//3 26//3 46//3
f 48//2 29//2 6//2
f 50//2 30//2 29//2
f 27//2 47//2 25//2
f 47//2 48//2 26//2
f 28//2 49//2 47//2
f 47//2 49//2 50//2
f 28//2 8//2 32//2
f 49//2 32//2 31//2
f 52//1 20//1 4//1
f 54//1 19//1 20//1
f 1//1 9//1 51//1
f 51//1 52//1 12//1
f 9//1 10//1 53//1
f 51//1 53//1 54//1
f 10//1 2//1 15//1
f 15//1 16//1 54//1
f 55//14 63//14 61//14
f 63//15 65//15 62//15
f 59//16 64//16 58//16
f 64//8 63//8 55//8
f 60//17 66//17 64//17
f 66//3 65//3 63//3
f 10//1 55//1 56//1
f 13//18 14//18 60//18
f 46//19 18//19 62//19
f 17//20 61//20 62//20
f 74//2 114//2 111//2
f 39//2 106//2 100//2
f 73//2 72//2 112//2
f 37//2 38//2 73//2
f 38//2 23//2 72//2
f 4//6 68//6 72//6
f 3//4 21//4 71//4
f 3//1 69//1 70//1
f 75//6 76//6 79//6
f 79//6 76//6 77//6
f 36//5 80//5 77//5
f 11//4 94//4 93//4
f 36//2 35//2 79//2
f 1//8 93//8 96//8
f 84//4 85//4 82//4
f 85//4 86//4 83//4
f 2//6 87//6 88//6
f 16//5 83//5 86//5
f 2//8 81//8 90//8
f 17//2 41//2 85//2
f 88//1 87//1 90//1
f 89//1 88//1 91//1
f 83//4 92//4 91//4
f 15//6 88//6 89//6
f 16//5 89//5 92//5
f 82//4 91//4 90//4
f 94//1 97//1 96//1
f 95//1 98//1 97//1
f 75//6 96//6 97//6
f 12//4 95//4 94//4
f 76//6 97//6 98//6
f 77//5 98//5 95//5
f 100//4 116//4 115//4
f 103//1 119//1 117//1
f 104//1 120//1 119//1
f 107//5 113//5 112//5
f 111//5 114//5 110//5
f 114//5 113//5 107//5
f 21//4 22//4 100//4
f 70//1 69//1 109//1
f 23//1 38//1 103//1
f 70//1 110//1 107//1
f 21//1 99//1 104//1
f 23//6 101//6 102//6
f 109//6 69//6 127//6
f 37//1 104//1 103//1
f 68//4 108//4 135//4
f 24//2 102//2 105//2
f 121//5 118//5 117//5
f 115//5 116//5 122//5
f 122//5 121//5 119//5
f 105//2 121//2 122//2
f 102//2 118//2 121//2
f 99//1 115//1 120//1
f 101//6 117//6 118//6
f 100//2 106//2 122//2
f 124//4 126//4 125//4
f 109//5 125//5 126//5
f 69//8 71//8 124//8
f 71//2 111//2 126//2
f 127//1 129//1 130//1
f 109//5 128//5 130//5
f 125//4 130//4 129//4
f 123//8 129//8 127//8
f 131//6 134//6 133//6
f 72//2 132//2 133//2
f 112//5 133//5 134//5
f 72//8 68//8 131//8
f 136//1 135//1 137//1
f 134//5 137//5 135//5
f 68//8 136//8 138//8
f 131//6 138//6 137//6
f 54//1 16//1 19//1
f 50//2 31//2 30//2
f 18//21 46//21 6//21
f 44//4 30//4 22//4
f 24//5 40//5 8//5
f 36//6 12//6 23//6
f 28//6 34//6 8//6
f 24//6 34//6 23//6
f 27//6 5//6 33//6
f 27//6 33//6 28//6
f 14//22 13//22 33//22
f 34//6 33//6 36//6
f 13//8 1//8 78//8
f 35//2 13//2 79//2
f 20//1 19//1 67//1
f 108//1 68//1 107//1
f 68//1 4//1 67//1
f 21//2 37//2 71//2
f 74//2 73//2 114//2
f 39//2 40//2 106//2
f 22//5 7//5 39//5
f 40//5 39//5 32//5
f 16//4 42//4 3//4
f 42//4 44//4 21//4
f 85//2 41//2 86//2
f 2//8 17//8 81//8
f 41//4 17//4 43//4
f 41//4 43//4 42//4
f 18//23 6//23 43//23
f 43//4 29//4 44//4
f 17//24 2//24 61//24
f 55//1 10//1 58//1
f 57//25 1//25 59//25
f 45//12 46//12 66//12
f 58//1 9//1 57//1
f 14//26 45//26 60//26
f 14//27 5//27 45//27
f 45//3 25//3 46//3
f 26//2 48//2 6//2
f 48//2 50//2 29//2
f 5//2 27//2 25//2
f 25//2 47//2 26//2
f 27//2 28//2 47//2
f 48//2 47//2 50//2
f 49//2 28//2 32//2
f 50//2 49//2 31//2
f 12//1 52//1 4//1
f 52//1 54//1 20//1
f 11//1 1//1 51//1
f 11//1 51//1 12//1
f 51//1 9//1 53//1
f 52//1 51//1 54//1
f 53//1 10//1 15//1
f 53//1 15//1 54//1
f 56//28 55//28 61//28
f 61//29 63//29 62//29
f 57//28 59//28 58//28
f 58//8 64//8 55//8
f 59//30 60//30 64//30
f 64//3 66//3 63//3
f 2//1 10//1 56//1
f 59//31 13//31 60//31
f 65//32 46//32 62//32
f 18//33 17//33 62//33
f 71//2 74//2 111//2
f 22//2 39//2 100//2
f 113//2 73//2 112//2
f 74//2 37//2 73//2
f 73//2 38//2 72//2
f 23//6 4//6 72//6
f 69//4 3//4 71//4
f 19//1 3//1 70//1
f 78//6 75//6 79//6
f 80//6 79//6 77//6
f 12//5 36//5 77//5
f 1//4 11//4 93//4
f 80//2 36//2 79//2
f 75//8 1//8 96//8
f 81//4 84//4 82//4
f 82//4 85//4 83//4
f 15//6 2//6 88//6
f 42//5 16//5 86//5
f 87//8 2//8 90//8
f 84//2 17//2 85//2
f 91//1 88//1 90//1
f 92//1 89//1 91//1
f 82//4 83//4 91//4
f 16//6 15//6 89//6
f 83//5 16//5 92//5
f 81//4 82//4 90//4
f 93//1 94//1 96//1
f 94//1 95//1 97//1
f 76//6 75//6 97//6
f 11//4 12//4 94//4
f 77//6 76//6 98//6
f 12//5 77//5 95//5
f 99//4 100//4 115//4
f 101//1 103//1 117//1
f 103//1 104//1 119//1
f 108//5 107//5 112//5
f 109//5 111//5 110//5
f 110//5 114//5 107//5
f 99//4 21//4 100//4
f 110//1 70//1 109//1
f 101//1 23//1 103//1
f 67//1 70//1 107//1
f 37//1 21//1 104//1
f 24//6 23//6 102//6
f 128//6 109//6 127//6
f 38//1 37//1 103//1
f 136//4 68//4 135//4
f 40//2 24//2 105//2
f 119//5 121//5 117//5
f 120//5 115//5 122//5
f 120//5 122//5 119//5
f 106//2 105//2 122//2
f 105//2 102//2 121//2
f 104//1 99//1 120//1
f 102//6 101//6 118//6
f 116//2 100//2 122//2
f 123//4 124//4 125//4
f 111//5 109//5 126//5
f 123//8 69//8 124//8
f 124//2 71//2 126//2
f 128//1 127//1 130//1
f 125//5 109//5 130//5
f 123//4 125//4 129//4
f 69//8 123//8 127//8
f 132//6 131//6 133//6
f 112//2 72//2 133//2
f 108//5 112//5 134//5
f 132//8 72//8 131//8
f 138//1 136//1 137//1
f 108//5 134//5 135//5
f 131//8 68//8 138//8
f 134//6 131//6 137//6
