# Blender v2.76 (sub 0) OBJ File: 'carv.blend'
# www.blender.org
mtllib carv.mtl
o Plane_Plane.001
v -1.063166 1.675509 1.840314
v 4.060880 1.675509 1.840314
v -1.063166 1.675509 -1.366714
v 4.060880 1.675509 -1.366714
v 2.921229 1.675509 -0.842462
v 0.311242 1.675508 -0.770492
v 0.396677 1.675509 0.772189
v 2.978371 1.675509 0.801880
v -1.063166 2.076190 -1.366714
v -1.063166 2.076190 1.840314
v 4.060880 2.076190 1.840314
v 4.060880 2.076190 -1.366714
v 2.921229 2.076190 -0.842462
v 0.311242 2.076190 -0.770492
v 0.396677 2.076190 0.772189
v 2.978371 2.076190 0.801880
vt 0.000000 0.000000
vt 0.000100 0.999900
vt 0.000100 0.000100
vt 0.284944 0.333091
vt 0.268274 0.814026
vt 0.777532 0.836463
vt 0.999900 0.999900
vt 0.999900 0.000100
vt 0.788682 0.323835
vn 0.000000 -1.000000 0.000000
vn -0.000000 1.000000 0.000000
vn -0.999400 0.000000 0.034700
vn 0.027600 0.000000 0.999600
vn 0.000000 0.000000 -1.000000
vn 0.000000 0.000000 1.000000
vn 0.011500 0.000000 -0.999900
vn 0.998500 -0.000000 -0.055300
vn 1.000000 0.000000 0.000000
vn -1.000000 0.000000 0.000000
usemtl Material
s off
f 3/1/1 4/1/1 5/1/1 6/1/1 7/1/1 1/1/1
f 1/1/1 7/1/1 8/1/1 5/1/1 4/1/1 2/1/1
f 9/2/2 10/3/2 15/4/2 14/5/2 13/6/2 12/7/2
f 10/3/2 11/8/2 12/7/2 13/6/2 16/9/2 15/4/2
f 5/1/3 8/1/3 16/1/3 13/1/3
f 6/1/4 5/1/4 13/1/4 14/1/4
f 4/1/5 3/1/5 9/1/5 12/1/5
f 1/1/6 2/1/6 11/1/6 10/1/6
f 8/1/7 7/1/7 15/1/7 16/1/7
f 7/1/8 6/1/8 14/1/8 15/1/8
f 2/1/9 4/1/9 12/1/9 11/1/9
f 3/1/10 1/1/10 10/1/10 9/1/10
